<?xml version="1.0" standalone="no"?>
<!DOCTYPE svg PUBLIC "-//W3C//DTD SVG 20010904//EN"
 "http://www.w3.org/TR/2001/REC-SVG-20010904/DTD/svg10.dtd">
<svg version="1.0" xmlns="http://www.w3.org/2000/svg"
 width="256.000000pt" height="256.000000pt" viewBox="0 0 256.000000 256.000000"
 preserveAspectRatio="xMidYMid meet">
<metadata>
Created by potrace 1.14, written by Peter Selinger 2001-2017
</metadata>
<g transform="translate(0.000000,256.000000) scale(0.100000,-0.100000)"
fill="#000000" stroke="none">
<path d="M1242 2547 c-12 -7 -19 -16 -16 -20 4 -4 2 -7 -4 -7 -7 0 -12 -5 -12
-11 0 -5 -9 -29 -19 -52 -10 -23 -44 -103 -76 -177 -31 -74 -65 -152 -76 -173
-10 -21 -19 -44 -19 -52 0 -8 -4 -15 -8 -15 -5 0 -9 -6 -9 -12 0 -7 -14 -44
-31 -81 -18 -38 -32 -70 -32 -71 0 -2 -12 -30 -27 -62 -14 -33 -27 -63 -29
-69 -1 -5 -13 -35 -27 -65 -44 -99 -69 -155 -71 -165 -3 -10 -7 -18 -82 -188
-24 -55 -44 -106 -44 -113 0 -8 -5 -14 -11 -14 -5 0 -8 -4 -4 -9 3 -5 1 -12
-5 -16 -6 -4 -8 -11 -5 -16 4 -5 1 -9 -4 -9 -6 0 -11 -5 -11 -10 0 -6 -7 -27
-16 -48 -10 -20 -18 -43 -20 -51 -1 -8 -9 -18 -16 -22 -7 -5 -10 -9 -5 -9 4 0
-2 -19 -14 -42 -12 -24 -21 -43 -21 -43 1 0 -1 -10 -4 -22 -4 -13 -10 -23 -15
-23 -5 0 -8 -3 -7 -8 3 -7 -10 -41 -53 -137 -9 -22 -32 -74 -49 -115 -34 -79
-40 -93 -90 -205 -17 -38 -30 -70 -30 -70 1 0 -4 -13 -10 -30 -6 -16 -11 -32
-10 -34 1 -2 -2 -7 -7 -10 -8 -6 -52 -105 -56 -126 -1 -5 -6 -13 -12 -17 -13
-10 -13 -94 0 -107 6 -6 24 -13 40 -16 27 -6 81 21 140 68 6 4 55 39 110 77
55 38 105 74 112 79 7 6 16 11 22 11 5 0 11 3 13 8 3 7 39 33 158 113 36 24
67 47 70 50 3 3 32 23 65 44 33 22 61 43 63 47 2 5 9 8 15 8 6 0 20 8 31 18
12 11 72 54 135 96 89 61 118 76 137 72 13 -4 24 -11 24 -16 0 -6 6 -10 14
-10 8 0 16 -3 18 -8 2 -4 98 -72 213 -152 116 -79 212 -146 215 -149 3 -3 12
-10 21 -16 17 -10 128 -86 304 -209 181 -125 198 -136 219 -136 47 1 79 59 57
106 -6 13 -15 34 -20 47 -15 38 -43 101 -57 131 -8 16 -14 35 -14 43 0 7 -5
13 -10 13 -6 0 -9 3 -8 8 1 8 -5 24 -37 97 -12 28 -28 67 -36 87 -7 21 -17 38
-23 38 -5 0 -7 3 -3 6 3 4 -2 23 -13 44 -11 21 -16 40 -13 44 4 3 1 6 -5 6 -7
0 -12 5 -12 11 0 6 -16 47 -36 92 -53 121 -59 134 -95 222 -19 44 -38 83 -42
86 -5 3 -8 9 -8 13 2 11 -3 24 -19 61 -7 17 -14 32 -15 35 -1 3 -11 27 -23 53
-12 27 -22 50 -22 53 0 2 -13 31 -29 64 -16 33 -27 60 -25 60 3 0 -1 12 -10
28 -8 15 -21 43 -29 62 -9 19 -25 58 -37 85 -29 67 -38 89 -37 95 1 3 -6 19
-15 35 -17 31 -30 67 -28 74 1 2 -3 7 -8 10 -9 6 -53 106 -74 169 -6 17 -15
32 -20 32 -4 0 -8 11 -8 25 0 14 -4 25 -10 25 -5 0 -10 8 -10 18 0 10 -5 23
-11 29 -6 6 -12 17 -13 24 -3 16 -3 16 -83 199 -8 19 -21 47 -29 63 -9 15 -13
27 -10 27 2 0 -9 27 -25 59 -37 78 -67 95 -117 68z"/>
</g>
</svg>
